<svg width="76" height="76" viewBox="0 0 76 76" fill="none" xmlns="http://www.w3.org/2000/svg">
<g id="Frame 47874">
<g id="F150, Protection, security, shield">
<path id="Vector" d="M57.599 25.2056V45.7391C57.599 57.8642 37.9323 62.3502 37.9323 62.3502C37.9323 62.3502 18.2656 57.7667 18.2656 45.7391V25.2056C18.2656 25.2056 28.5378 28.1529 36.1769 19.311C37.163 18.2166 37.9215 17.3497 37.9215 17.3497C37.9215 17.3497 38.9075 17.9999 39.666 19.311C44.9105 29.1389 57.5773 25.2056 57.5773 25.2056H57.599ZM48.8655 42.0225C48.8655 36.0195 43.9461 31.1002 37.9432 31.1002C31.9402 31.1002 27.0208 36.0195 27.0208 42.0225C27.0208 48.0254 31.9402 52.9448 37.9432 52.9448C43.9461 52.9448 48.8655 48.0254 48.8655 42.0225Z" fill="white"/>
<path id="Vector_2" d="M63.9427 17.4472V46.075C63.9427 62.9028 37.9371 69.35 37.9371 69.35C37.9371 69.35 12.0508 62.9028 12.0508 46.075V17.4472C12.0508 17.4472 25.5953 21.4889 35.7592 9.25548C37.0703 7.72766 38.0563 6.5249 38.0563 6.5249C38.0563 6.5249 39.3674 7.40259 40.3535 9.25548C47.1258 22.8 63.9535 17.4472 63.9535 17.4472H63.9427ZM57.6038 45.8475V25.1947C57.6038 25.1947 44.9261 29.1281 39.6925 19.3001C38.9232 17.989 37.948 17.3389 37.948 17.3389C37.948 17.3389 37.1786 18.2166 36.2034 19.3001C28.5535 28.0445 18.2921 25.1947 18.2921 25.1947V45.7283C18.2921 57.8533 37.9588 62.3393 37.9588 62.3393C37.9588 62.3393 57.6255 57.8642 57.6255 45.8475H57.6038Z" fill="#12ABC0"/>
<path id="Vector_3" d="M37.9463 31.1002C43.96 31.1002 48.8686 36.0196 48.8686 42.0225C48.8686 48.0255 43.9492 52.9449 37.9463 52.9449C31.9433 52.9449 27.0239 48.0255 27.0239 42.0225C27.0239 36.0196 31.9433 31.1002 37.9463 31.1002Z" fill="#80AF52"/>
<path id="Vector_4" d="M37.946 70.6502H37.6209C37.4042 70.5419 30.8486 69.0141 24.293 65.1891C20.3597 63.0003 17.3041 60.378 15.0069 57.6475C12.0596 54.1476 10.6401 50.2142 10.6401 46.0642V17.4472C10.6401 17.0138 10.8568 16.5695 11.1819 16.3528C11.507 16.1361 11.9512 16.0278 12.3847 16.1361C12.3847 16.1361 14.4651 16.6779 17.4124 16.6779C22.1151 16.6779 28.9957 15.2584 34.6736 8.37779C35.9847 6.84997 36.9708 5.64721 36.9708 5.64721C37.4042 5.10543 38.1735 4.98624 38.8236 5.4305C39.0404 5.53886 40.4598 6.63326 41.5542 8.7137C44.3932 14.3916 49.4209 17.2305 56.5183 17.2305C60.5599 17.2305 63.6156 16.2445 63.6156 16.2445C64.049 16.1361 64.4933 16.1361 64.8184 16.4612C65.1434 16.6779 65.3601 17.1113 65.3601 17.5556V46.0642C65.3601 50.2142 63.9407 54.1476 60.9934 57.6475C58.6962 60.378 55.6406 62.8919 51.7072 65.1891C45.1517 68.9057 38.7045 70.5419 38.3794 70.6502H37.946ZM13.3599 19.0834V46.0642C13.3599 60.7031 34.9878 67.042 37.946 67.9088C39.3654 67.5838 44.8266 65.9367 50.2878 62.7727C58.3711 58.0809 62.5212 52.5005 62.5212 46.0533V19.1918C61.1017 19.5168 58.9129 19.8419 56.2907 19.8419C50.7212 19.8419 43.1796 18.0974 38.9212 9.78643C38.5961 9.24465 38.271 8.80038 38.0435 8.47532C37.7184 8.90874 37.1658 9.46136 36.7324 10.1115C30.3935 17.8698 22.6352 19.3976 17.3907 19.3976C15.7546 19.3976 14.3351 19.1809 13.349 19.0726L13.3599 19.0834Z" fill="black"/>
<path id="Vector_5" d="M37.9465 63.878H37.6214C37.4047 63.878 32.4853 62.6752 27.4576 59.9446C20.577 56.228 16.8604 51.3194 16.8604 45.8474V25.1947C16.8604 24.7613 17.0771 24.317 17.4021 24.1003C17.7272 23.8836 18.1715 23.7752 18.6049 23.8836C18.6049 23.8836 20.1327 24.317 22.3215 24.317C25.8214 24.317 30.9467 23.331 35.2159 18.4224L36.9605 16.4612C37.3939 15.9194 38.1632 15.8002 38.705 16.2445C38.8134 16.3528 40.0161 17.1222 40.8938 18.7583C42.9743 22.6917 46.68 24.6529 51.9245 24.6529C54.8718 24.6529 57.1689 23.9919 57.2773 23.9919C57.7107 23.8836 58.155 23.992 58.4801 24.2087C58.8051 24.4254 59.0218 24.8588 59.0218 25.3031V45.8474C59.0218 51.3086 55.4136 56.228 48.4246 59.9446C43.3968 62.6752 38.4883 63.7696 38.2607 63.878C38.1524 63.7696 38.044 63.878 37.9357 63.878H37.9465ZM19.6993 26.8417V45.7391C19.6993 55.7946 35.541 60.378 37.9465 61.039C40.352 60.3889 56.1937 55.9029 56.1937 45.7391V26.9501C55.0993 27.1668 53.5715 27.3835 51.827 27.3835C47.5686 27.3835 41.6631 26.0724 38.3908 20.0694C38.2824 19.8527 38.0657 19.636 37.9573 19.4085L37.188 20.2862C32.2686 25.8557 26.374 27.0584 22.3324 27.0584C21.3463 27.0584 20.3711 26.9501 19.7101 26.8417H19.6993Z" fill="black"/>
<path id="Vector_6" d="M37.9443 54.2668C31.1721 54.2668 25.6025 48.8056 25.6025 41.925C25.6025 35.0443 31.1721 29.6915 37.9443 29.6915C44.7166 29.6915 50.2861 35.1527 50.2861 42.0333C50.2861 48.914 44.7166 54.2668 37.9443 54.2668ZM37.9443 32.4113C32.6999 32.4113 28.3331 36.6697 28.3331 42.0225C28.3331 47.3753 32.5915 51.6337 37.9443 51.6337C43.2971 51.6337 47.5556 47.3753 47.5556 42.0225C47.5556 36.6697 43.1888 32.4113 37.9443 32.4113Z" fill="black"/>
<path id="Vector_7" d="M36.6352 47.4837C36.3101 47.4837 35.985 47.3753 35.6491 47.0503L32.9185 44.3197C32.3768 43.7779 32.3768 42.9002 32.9185 42.3584C33.4603 41.8166 34.338 41.8166 34.8798 42.3584L36.4076 43.8863L40.9911 37.114C41.4245 36.4638 42.3022 36.3446 42.844 36.7889C43.505 37.2223 43.6133 38.1 43.1691 38.6418L37.7079 46.8335C37.4912 47.1586 37.1661 47.3753 36.7219 47.4837C36.6135 47.3753 36.6135 47.4837 36.6135 47.4837H36.6352Z" fill="black"/>
</g>
</g>
</svg>
