<svg width="72" height="71" viewBox="0 0 72 71" fill="none" xmlns="http://www.w3.org/2000/svg">
<g id="Group">
<path id="Vector" d="M66.1144 45.4664C70.0136 49.1137 70.8281 54.2849 68.6783 58.6941L61.2805 51.7617C59.6647 50.2504 56.8338 50.2504 55.2181 51.7617C53.6023 53.2731 53.4688 55.9212 55.2181 57.4326L62.6158 64.3649C57.9021 66.3759 52.2536 65.6265 48.3411 61.9667C44.9761 58.6941 43.8945 54.16 45.3767 50.1255C45.5102 49.7507 45.6437 49.2386 45.7773 48.8639C47.126 46.0909 49.5429 43.8301 52.7744 42.6934C53.0415 42.5685 53.3086 42.5685 53.589 42.4436C57.7552 41.307 62.6025 42.3187 66.1144 45.4664Z" fill="#57606F"/>
<path id="Vector_2" d="M55.3401 23.5451C57.223 23.5451 58.7052 24.9316 58.7052 26.6928C58.7052 28.454 57.223 29.8405 55.3401 29.8405C53.4573 29.8405 51.9751 28.454 51.9751 26.6928C51.9751 24.9316 53.4573 23.5451 55.3401 23.5451Z" fill="#D7DEED"/>
<path id="Vector_3" d="M26.8024 17.7619C25.7208 21.1594 22.4893 24.3071 18.7236 25.3188L45.3769 50.2504C45.5104 49.8757 45.644 49.5009 45.911 49.1137C47.1262 45.9661 49.6767 43.955 52.9082 42.9433C53.1752 42.8184 53.4423 42.8184 53.5758 42.6935L26.8024 17.7619Z" fill="#414A56"/>
<path id="Vector_4" d="M45.2447 1.51135C48.0756 1.51135 50.359 3.65977 50.359 6.29532C50.359 8.93087 48.0756 11.0793 45.2447 11.0793C42.4138 11.0793 40.1304 8.93087 40.1304 6.29532C40.1304 3.65977 42.4138 1.51135 45.2447 1.51135Z" fill="#D7DEED"/>
<path id="Vector_5" d="M32.5843 64.4774C33.933 64.4774 35.1482 65.4891 35.1482 66.8756C35.1482 67.5001 34.8811 68.1372 34.4805 68.5119C34.0799 68.8866 33.3989 69.1364 32.7312 69.1364H24.5189C23.1702 69.1364 21.9551 68.1247 21.9551 66.7382C21.9551 66.1137 22.2221 65.4766 22.6227 65.1019C23.0233 64.7272 23.7044 64.34 24.372 64.34H32.5843V64.4649V64.4774Z" fill="#AFB9D2"/>
<path id="Vector_6" d="M24.5068 59.8183V55.2841L28.4194 50.3752L32.4521 55.2841V64.4773H24.5068V59.8183Z" fill="#D7DEED"/>
<path id="Vector_7" d="M23.7049 5.92064C28.5522 10.4548 28.6857 17.8868 23.7049 22.4209C18.8577 26.9551 10.9124 26.9551 6.06515 22.4209C2.29951 18.8986 1.48496 13.6025 3.63485 9.19322L10.8991 15.9882C11.7136 16.7501 12.7819 17.1249 13.997 17.1249C15.0787 17.1249 16.1469 16.7501 17.095 15.9882C18.7108 14.4768 18.7108 11.8288 17.095 10.3174L9.69726 3.52241C14.2775 1.5114 19.9259 2.38575 23.7049 5.92064Z" fill="#57606F"/>
<path id="Vector_8" d="M14.0105 50.3752C15.3592 50.3752 16.561 51.387 16.561 52.7735C16.561 53.398 16.2939 54.035 15.8933 54.4098C15.4927 54.7845 14.8117 55.0343 14.1441 55.0343H5.79822C4.44953 55.0343 3.23438 54.0225 3.23438 52.6361C3.23438 52.0115 3.50144 51.3745 3.90204 50.9998C4.30264 50.6251 4.98366 50.3752 5.65133 50.3752H13.9972H14.0105Z" fill="#AFB9D2"/>
<path id="Vector_9" d="M13.8774 59.8183V64.2275L9.96484 69.2613L5.93213 64.2275V55.0343H13.8774V59.8183Z" fill="#D7DEED"/>
<path id="Vector_10" d="M57.2223 67.0005C53.4566 67.0005 49.8245 65.614 47.1272 63.1033C41.6122 57.8197 41.7458 49.5009 47.2607 44.3422C52.7756 39.3084 61.6689 39.3084 67.1839 44.4671C71.3635 48.3642 72.5653 54.2849 70.1483 59.456C69.8813 59.9557 69.4807 60.2055 68.9332 60.3429C68.399 60.4678 67.8515 60.218 67.4509 59.9682L60.0398 53.0358C59.5057 52.5361 58.8247 52.2863 58.157 52.2863C56.6748 52.2863 55.6065 53.423 55.6065 54.6846C55.6065 55.3091 55.8736 55.9461 56.4077 56.4458L63.8055 63.3656C64.2061 63.7404 64.3396 64.2525 64.2061 64.7521C64.0725 65.2518 63.8055 65.639 63.258 65.8888C61.3752 66.6382 59.2253 67.0254 57.1956 67.0254L57.2223 67.0005ZM53.9908 44.0799C50.7593 44.9667 48.0619 47.3525 46.8601 50.6251C44.5767 57.0453 49.8245 63.8528 57.2223 63.8528C57.89 63.8528 58.7045 63.7279 59.3722 63.603L53.8572 58.4443C51.5738 56.3084 51.5738 52.6486 53.8572 50.5126C56.1407 48.3767 59.9197 48.3767 62.3366 50.5126L67.8515 55.6713C68.5192 52.3987 67.4509 49.0013 64.8871 46.4781C61.9227 43.8301 57.6229 43.0806 53.9774 44.0799H53.9908Z" fill="black"/>
<path id="Vector_11" d="M44.1619 51.3745L17.5086 26.4429C16.5605 25.5561 16.9745 24.1821 18.1763 23.7949C19.6585 23.4202 20.8737 22.6582 22.0755 21.659C22.209 21.5341 22.3425 21.5341 22.4761 21.4092C22.6096 21.2843 22.6096 21.1593 22.7431 21.0344C23.9583 19.8978 24.7595 18.5113 25.2936 17.1373C25.6942 16.0007 27.1764 15.6259 28.1245 16.5128L54.7778 41.4444C55.7259 42.3312 55.3119 43.7052 53.9766 44.0924C50.478 44.9792 48.0477 47.1152 46.9795 50.6376C46.8459 51.1372 46.3118 51.6493 45.7643 51.7742C45.2168 51.8991 44.5491 51.7742 44.1485 51.3995L44.1619 51.3745ZM21.6882 25.8184L44.7094 47.3525C45.9245 44.9543 47.9409 43.1931 50.4914 41.944L27.4702 20.4099C26.9361 21.4217 26.1215 22.4209 25.1868 23.3078C25.0533 23.4327 24.9197 23.5576 24.7862 23.6825C24.6527 23.8074 24.5191 23.9323 24.3856 24.0572C23.5844 24.8067 22.6363 25.3188 21.6882 25.8184Z" fill="black"/>
<path id="Vector_12" d="M22.2224 23.7949C21.5548 23.1704 21.5548 22.1586 22.2224 21.5341C22.3115 21.4508 22.4005 21.3675 22.4895 21.2843C23.1572 20.6597 24.2388 20.6597 24.9065 21.2843C25.5741 21.9088 25.5741 22.9206 24.9065 23.5576L24.6394 23.8074C23.9717 24.4319 22.8901 24.4319 22.2224 23.8074V23.7949Z" fill="black"/>
<path id="Vector_13" d="M14.8117 27.4547C11.046 27.4547 7.41391 26.0682 4.71653 23.5576C0.550291 19.648 -0.53133 13.6024 1.88562 8.56864C2.15269 8.06901 2.55329 7.8192 3.10078 7.6818C3.63491 7.55689 4.1824 7.8067 4.583 8.05652L11.8472 14.8515C12.3813 15.3511 13.0624 15.6134 13.73 15.6134C14.3977 15.6134 15.0787 15.3636 15.6129 14.8515C16.147 14.3394 16.4141 13.7148 16.4141 13.0903C16.4141 12.4658 16.147 11.8287 15.6129 11.3291L8.49553 4.65903C8.09493 4.28431 7.96139 3.77219 8.09493 3.27256C8.22846 2.77293 8.49553 2.38571 9.04301 2.1359C10.9258 1.37396 12.9422 0.874329 14.9719 0.874329C18.7375 0.874329 22.2361 2.2608 24.9335 4.78394C27.6309 7.30707 29.1131 10.4547 29.1131 13.9771C29.2466 21.4092 22.7836 27.4547 14.8384 27.4547H14.8117ZM4.31593 12.2159C3.64827 15.4885 4.583 19.0109 7.28037 21.4092C11.4466 25.3063 18.3236 25.4437 22.7569 21.1593C26.7896 17.1248 26.6561 10.9544 22.4898 7.05726C20.4735 5.17115 17.7761 4.03449 14.8117 4.03449C14.144 4.03449 13.3294 4.1594 12.6618 4.28431L18.0432 9.31809C20.3266 11.454 20.3266 15.1138 18.0432 17.2497C16.9615 18.2615 15.3458 18.886 13.8769 18.886C12.2612 18.886 10.7789 18.2615 9.69733 17.2497L4.31593 12.2159Z" fill="black"/>
<path id="Vector_14" d="M27.2033 28.7163C26.2552 27.8295 26.2552 26.3181 27.2033 25.3188C28.1513 24.432 29.7671 24.432 30.7018 25.3188C31.6499 26.2057 31.6499 27.717 30.7018 28.7163C30.3012 29.2159 28.138 29.7281 27.2033 28.7163Z" fill="black"/>
<path id="Vector_15" d="M43.2274 42.8184C42.5598 42.8184 41.8788 42.5686 41.4782 42.0564C40.5301 41.1696 40.5301 39.6582 41.4782 38.7839C42.0123 38.2842 42.5598 38.0344 43.2274 38.0344C43.8951 38.0344 44.5761 38.2842 44.9767 38.659C45.9248 39.5458 45.9248 41.0447 44.9767 42.0564C44.5761 42.5561 43.8951 42.8184 43.2274 42.8184Z" fill="black"/>
<path id="Vector_16" d="M9.96438 70.7727C9.43025 70.7727 8.88276 70.5229 8.61569 70.1482L4.71652 65.2393C4.44945 64.9895 4.31592 64.6148 4.31592 64.2276V55.0344C4.31592 54.1475 5.13047 53.3981 6.06521 53.3981C6.99994 53.3981 7.81449 54.16 7.81449 55.0344V63.7279L10.0979 66.6258L12.3813 63.7279V55.0344C12.3813 54.1475 13.1825 53.3981 14.1306 53.3981C15.0787 53.3981 15.8799 54.16 15.8799 55.0344V64.2276C15.8799 64.6023 15.7464 64.8521 15.4793 65.2393L11.5801 70.1482C11.046 70.5229 10.4985 70.7727 9.96438 70.7727Z" fill="black"/>
<path id="Vector_17" d="M14.0104 56.6706H5.79808C3.51466 56.6706 1.63184 54.9094 1.63184 52.7735C1.63184 51.7618 2.03244 50.7625 2.84699 50.0006C3.64819 49.2386 4.72981 48.8639 5.81143 48.8639H14.0237C16.3072 48.8639 18.19 50.6251 18.19 52.7735C18.19 53.7853 17.7894 54.7845 16.9748 55.5465C16.1736 56.171 15.2255 56.6831 14.0104 56.6831V56.6706ZM5.93161 51.8867C5.66455 51.8867 5.39748 52.0116 5.39748 52.1365C5.26394 52.2614 5.13041 52.3863 5.13041 52.6361C5.13041 53.0108 5.53101 53.3856 5.93161 53.3856H14.1439C14.411 53.3856 14.5445 53.2606 14.678 53.1357C14.8116 53.0108 14.9451 52.8859 14.9451 52.6361C14.9451 52.2614 14.5445 51.8742 14.1306 51.8742H5.93161V51.8867Z" fill="black"/>
<path id="Vector_18" d="M13.876 61.3297H9.97683C9.02874 61.3297 8.22754 60.5803 8.22754 59.6934C8.22754 58.8066 9.04209 58.0571 9.97683 58.0571H13.876C14.8241 58.0571 15.6253 58.8066 15.6253 59.6934C15.6253 60.7052 14.8107 61.3297 13.876 61.3297Z" fill="black"/>
<path id="Vector_19" d="M32.4514 66.1136C31.5033 66.1136 30.7021 65.3517 30.7021 64.4773V55.7837L28.4187 52.8859L26.1353 55.7837V64.4773C26.1353 65.3642 25.3207 66.1136 24.386 66.1136C23.4513 66.1136 22.6367 65.3517 22.6367 64.4773V55.2841C22.6367 54.9094 22.7703 54.6596 23.0373 54.2724L26.9365 49.3635C27.2036 48.9888 27.751 48.739 28.2852 48.739C28.8193 48.739 29.3668 48.9888 29.6339 49.3635L33.533 54.2724C33.8001 54.5222 33.9336 54.8969 33.9336 55.2841V64.4773C34.0672 65.3642 33.3995 66.1136 32.4514 66.1136Z" fill="black"/>
<path id="Vector_20" d="M32.5851 70.7727H24.3728C22.0894 70.7727 20.2065 69.0115 20.2065 66.8756C20.2065 65.8638 20.6071 64.8646 21.4217 64.1026C22.2363 63.3407 23.3045 62.966 24.3861 62.966H32.5984C34.8819 62.966 36.778 64.7272 36.778 66.8756C36.778 67.8873 36.3774 68.8866 35.5629 69.6485C34.7483 70.4105 33.6801 70.7852 32.5984 70.7852L32.5851 70.7727ZM24.3728 66.1136C24.1057 66.1136 23.8386 66.2386 23.8386 66.3635C23.7051 66.4884 23.5716 66.6133 23.5716 66.8631C23.5716 67.2378 23.9722 67.6125 24.3728 67.6125H32.5851C32.8522 67.6125 32.9857 67.4876 33.1192 67.3627C33.2528 67.2378 33.3863 67.1129 33.3863 66.8631C33.3863 66.4884 32.9857 66.1136 32.5717 66.1136H24.3594H24.3728Z" fill="black"/>
<path id="Vector_21" d="M28.418 61.3297H24.5188C23.5707 61.3297 22.7695 60.5803 22.7695 59.6934C22.7695 58.8066 23.5707 58.0571 24.5188 58.0571H28.418C29.3527 58.0571 30.1673 58.8066 30.1673 59.6934C30.1673 60.7052 29.3527 61.3297 28.418 61.3297Z" fill="black"/>
<path id="Vector_22" d="M55.3389 31.4893C52.508 31.4893 50.2246 29.3533 50.2246 26.7053C50.2246 24.0572 52.508 21.9213 55.3389 21.9213C58.1698 21.9213 60.4533 24.0572 60.4533 26.7053C60.4533 29.3533 58.0363 31.4893 55.3389 31.4893ZM55.3389 25.1814C54.3908 25.1814 53.5896 25.9309 53.5896 26.8177C53.5896 27.7046 54.3908 28.454 55.3389 28.454C56.287 28.454 57.0882 27.7046 57.0882 26.8177C57.0882 25.9309 56.1401 25.1814 55.3389 25.1814Z" fill="black"/>
<path id="Vector_23" d="M45.2447 12.5907C41.4791 12.5907 38.5146 9.81775 38.5146 6.29535C38.5146 2.77295 41.4791 0 45.2447 0C49.0104 0 51.9748 2.77295 51.9748 6.29535C51.9748 9.81775 48.8768 12.5907 45.2447 12.5907ZM45.2447 3.14767C43.3619 3.14767 41.8797 4.53415 41.8797 6.29535C41.8797 8.05655 43.3619 9.44302 45.2447 9.44302C47.1276 9.44302 48.6098 8.05655 48.6098 6.29535C48.6098 4.53415 46.994 3.14767 45.2447 3.14767Z" fill="black"/>
</g>
</svg>
