<svg width="70" height="72" viewBox="0 0 70 72" fill="none" xmlns="http://www.w3.org/2000/svg">
<g id="_&#229;&#175;&#131;&#226;&#145;&#184;&#226;&#148;&#129;_&#239;&#167;&#143;&#226;&#145;&#164;&#235;&#177;&#182;" clip-path="url(#clip0_2056_10807)">
<g id="B181, Currency, Dollar, Hand, Money">
<g id="Group">
<path id="Vector" d="M19.9595 48.3344L43.2921 50.3405C44.2428 50.4572 45.0643 50.8071 45.6629 51.4019L45.7803 51.5186C46.4962 52.1017 46.8483 53.0465 46.9657 53.9913C47.083 54.7027 46.9657 55.2859 46.7309 55.8691L60.9441 41.7444C61.7774 40.9163 62.9628 40.4497 64.1482 40.4497C65.3336 40.4497 66.4016 40.9163 67.3406 41.7444C69.1128 43.5056 69.1128 46.2116 67.3406 47.9845L49.5712 65.5267C47.6699 67.4045 45.0643 68.3493 42.4588 68.116L19.7131 66.5881L14.2673 70.4721L2.65967 58.925L12.2603 50.4455C14.1616 48.8009 16.6381 47.9728 19.1262 48.2061L19.9595 48.3227V48.3344Z" fill="#FFD8A8"/>
<path id="Vector_2" d="M23.7503 16.0726L9.5372 30.1973C8.70389 31.0254 7.51849 31.492 6.33308 31.492C5.14768 31.492 4.07964 31.0254 3.1407 30.1973C1.36846 28.4361 1.36846 25.7184 3.1407 23.9572L20.7927 6.41501C22.694 4.53716 25.2996 3.5924 27.9051 3.82567L50.6508 5.35362L56.0966 1.4696L67.8216 13.005L58.221 21.4845C56.3196 23.1291 53.8432 23.9572 51.355 23.7239L44.36 23.1408L27.4239 21.7294H27.1892C26.2385 21.6128 25.2996 21.2629 24.701 20.5514C23.9851 19.9682 23.633 19.0235 23.5156 18.0787C23.3982 17.3672 23.5156 16.6674 23.7503 16.0726Z" fill="#FFD8A8"/>
<path id="Vector_3" d="M34.1724 33.9647V31.492C33.2217 31.6086 32.7522 31.9585 32.7522 32.67C32.7522 33.0199 32.8696 33.2532 33.1043 33.4981C33.3391 33.7314 33.6912 33.848 34.1724 33.9647ZM35.123 37.7321V40.2048C36.1911 40.2048 36.6605 39.8548 36.6605 39.1434C36.6605 38.7935 36.5432 38.5602 36.1911 38.3152C35.839 38.082 35.6042 37.8487 35.123 37.7321ZM39.8647 29.964L38.3272 32.7866C38.3272 32.7866 38.2098 32.67 37.9751 32.5534C37.7403 32.4367 37.5056 32.3201 37.2591 32.2035C36.907 32.0868 36.6723 31.9702 36.1911 31.8535C35.839 31.7369 35.4751 31.6203 35.0057 31.6203V34.2096L35.7216 34.3263C36.4376 34.5595 37.0244 34.6762 37.623 34.9094C38.2098 35.1427 38.691 35.376 39.0431 35.7376C39.3952 36.0875 39.759 36.449 39.9938 36.9156C40.2285 37.3821 40.3459 37.977 40.3459 38.6768C40.3459 39.5049 40.2285 40.0881 39.9938 40.683C39.759 41.2662 39.4069 41.6277 38.9257 41.9776C38.4563 42.3276 37.9751 42.5608 37.3882 42.8058C36.8014 43.039 36.2028 43.039 35.4869 43.1557V45.5117H34.0667V43.1557C33.1161 43.039 32.1654 42.9224 31.2265 42.5725C30.2758 42.2226 29.4542 41.861 28.7383 41.3945L30.1584 38.4552C30.1584 38.5718 30.3932 38.6885 30.6279 38.8051C30.8626 38.9218 31.2147 39.155 31.5786 39.2717C31.9307 39.3883 32.4119 39.6216 32.8813 39.7382C33.3508 39.8548 33.832 39.9715 34.3015 40.0881V37.3821L33.3508 37.1489C32.6349 36.9156 32.048 36.6823 31.5786 36.4374C31.1091 36.2041 30.6279 35.9708 30.3932 35.6093C30.0411 35.2593 29.8063 34.8978 29.6772 34.5479C29.5599 34.198 29.4425 33.6031 29.4425 33.1366C29.4425 32.4251 29.5598 31.8419 29.7946 31.2587C30.0293 30.6755 30.3814 30.1973 30.7453 29.8474C31.2147 29.4975 31.6959 29.1359 32.1654 28.9026C32.7522 28.6694 33.3508 28.5527 34.0667 28.4361V26.3133H35.4869V28.4361C36.4375 28.5527 37.2591 28.6694 37.9751 29.0193C38.691 29.3692 39.3952 29.7308 39.8647 29.964Z" fill="black"/>
<path id="Vector_4" d="M14.2673 72C13.9152 72 13.5514 71.8834 13.1993 71.5335L1.47435 59.8698C1.23962 59.6365 1.00488 59.1583 1.00488 58.8084C1.00488 58.4584 1.23962 57.9802 1.47435 57.747L11.075 49.2675C13.211 47.3896 16.1687 46.4448 19.009 46.6781L43.1748 48.6843C44.3602 48.8009 45.5456 49.2675 46.3789 50.0956L46.4963 50.2122C47.0831 50.7954 47.5643 51.3902 47.7991 52.2184L59.524 40.5663C60.5921 39.5049 62.1296 38.8051 63.6671 38.8051C65.2046 38.8051 66.7421 39.3883 67.8101 40.5663C70.0636 42.9224 70.0636 46.5731 67.8101 48.9292L50.6276 66.588C48.4915 68.7108 45.4165 69.8889 42.4589 69.6439L20.1826 68.116L15.2063 71.6501C14.8542 71.8834 14.6194 72 14.2556 72H14.2673ZM4.79583 59.0416L14.5138 68.6992L18.8916 65.5266C19.1263 65.2934 19.4784 65.1767 19.8423 65.2934L42.588 66.8213C44.8414 66.938 46.9658 66.1098 48.515 64.5819L66.167 47.0397C67.3524 45.8617 67.3524 43.9838 66.167 42.9224C65.5802 42.3392 64.8642 42.0943 64.0309 42.0943C63.1976 42.0943 62.4934 42.4442 61.8948 42.9224L48.0338 56.6972C47.0831 58.7034 44.9588 59.9981 42.7053 59.8814L26.8256 59.1699C25.9923 59.1699 25.4055 58.4584 25.4055 57.642C25.4055 56.8255 26.1214 56.2307 26.943 56.2307L42.811 56.9422C43.7616 56.9422 44.7123 56.4756 45.1818 55.6475C45.1818 55.4142 45.2991 55.1809 45.4165 55.0643C45.5339 54.7144 45.5339 54.3528 45.5339 54.1195C45.4165 53.5364 45.1818 52.9415 44.7006 52.5916L44.5832 52.475C44.1137 52.1251 43.6325 51.8918 43.0457 51.7635L18.8799 49.7573C16.7438 49.5241 14.7368 50.2239 13.1993 51.6468L4.7841 59.065L4.79583 59.0416Z" fill="black"/>
<path id="Vector_5" d="M19.7249 68.116C19.3728 68.116 19.009 67.9993 18.7743 67.7661L11.3097 61.4094C10.7229 60.8262 10.5938 59.998 11.1924 59.2866C11.7792 58.7034 12.6125 58.5751 13.3284 59.1699L20.793 65.5266C21.3798 66.1098 21.5089 66.9379 20.9103 67.6494C20.5582 67.9993 20.077 68.116 19.7249 68.116Z" fill="black"/>
<path id="Vector_6" d="M6.33313 33.0317C4.79563 33.0317 3.25812 32.4486 2.19008 31.2705C-0.0633611 28.9145 -0.0633611 25.2637 2.19008 22.9077L19.8421 5.36546C21.9781 3.24266 25.0532 2.06463 28.0108 2.30957L50.287 3.83751L55.2634 0.303413C55.8502 -0.163135 56.6835 -0.0464981 57.1647 0.42005L68.8897 12.0721C69.1244 12.3054 69.3592 12.7836 69.3592 13.1335C69.3592 13.4834 69.1244 13.9616 68.8897 14.1949L59.2891 22.6744C57.153 24.5522 54.1954 25.497 51.3551 25.2637L27.1892 23.2576C25.8865 23.1409 24.7011 22.5461 23.7504 21.7296C23.1635 21.1464 22.6823 20.5516 22.4476 19.7235L10.7227 31.3755C9.41988 32.3203 7.99974 33.0201 6.33313 33.0201V33.0317ZM27.424 5.24882C25.4053 5.24882 23.3983 6.07694 21.9781 7.48825L4.31442 25.0188C3.72759 25.602 3.48112 26.3135 3.48112 27.1416C3.48112 27.9697 3.83322 28.6695 4.31442 29.2644C4.90126 29.8476 5.6172 30.0925 6.4505 30.0925C7.28381 30.0925 7.98801 29.7426 8.58658 29.2644L22.565 15.3729C23.5156 13.3668 25.64 12.0721 27.8934 12.1887L43.7732 12.9002C44.6065 12.9002 45.1933 13.6117 45.1933 14.4281C45.1933 15.2446 44.4774 15.8395 43.6558 15.8395L27.7761 15.128C26.8254 15.128 25.8747 15.5945 25.4053 16.4226C25.4053 16.6559 25.2879 16.8892 25.1705 17.0058C25.0532 17.3557 25.0532 17.7173 25.0532 17.9506C25.1705 18.5338 25.4053 19.1286 25.8865 19.4785C26.3559 19.9451 26.8371 20.19 27.424 20.19H27.6587L51.5898 22.1962C53.7259 22.4294 55.7329 21.7296 57.2704 20.3183L65.6856 12.9002L55.9676 3.3593L51.5898 6.54349C51.3551 6.77676 51.003 6.8934 50.6391 6.77676L27.8934 5.24882H27.424Z" fill="black"/>
<path id="Vector_7" d="M58.221 13.1333C57.8689 13.1333 57.5051 13.0167 57.2704 12.7834L49.8058 6.42668C49.219 5.8435 49.0899 5.01538 49.6885 4.30389C50.2753 3.72071 51.1086 3.59241 51.8245 4.18725L59.2891 10.544C59.8759 11.1272 60.005 11.9553 59.4064 12.6668C59.0543 13.0167 58.5731 13.1333 58.221 13.1333Z" fill="black"/>
<path id="Vector_8" d="M45.1934 52.335C44.9587 52.1017 44.8413 51.7518 44.8413 51.3902C44.8413 51.0403 44.9587 50.5621 45.3108 50.3288C45.8976 49.7457 46.8483 49.8623 47.4469 50.4455C47.6816 50.6788 47.799 51.0287 47.799 51.3902C47.799 51.7402 47.6816 52.2184 47.3295 52.4516C47.0948 52.6849 46.7427 52.8015 46.3788 52.8015C45.9093 52.8015 45.5455 52.6849 45.1934 52.335ZM48.2684 49.5124C47.9163 49.2791 47.6816 48.8009 47.6816 48.3344C47.6816 48.1011 47.799 47.7512 47.9163 47.5062C48.3858 46.7947 49.3365 46.6781 49.935 47.1563C50.2871 47.3896 50.5219 47.8678 50.5219 48.3344C50.5219 48.5676 50.4045 48.9175 50.2871 49.1625C50.0524 49.5124 49.5712 49.7457 49.1017 49.7457C48.7496 49.7457 48.5149 49.629 48.2684 49.5124ZM50.5219 45.9783C49.935 45.745 49.5712 45.1502 49.5712 44.567C49.5712 44.3337 49.5712 44.2171 49.6886 43.9838C50.0407 43.2723 50.874 42.8058 51.5899 43.1557C52.1767 43.3889 52.5406 43.9838 52.5406 44.567C52.5406 44.8003 52.5406 44.9169 52.4232 45.1502C52.1885 45.7333 51.5899 46.0949 51.0031 46.0949C50.8857 46.0949 50.651 46.0949 50.5336 45.9783H50.5219ZM51.942 42.0943C51.2261 41.9776 50.6392 41.3828 50.6392 40.683V40.4497C50.7566 39.6216 51.4725 39.0384 52.2941 39.155C53.01 39.2717 53.5969 39.8665 53.5969 40.5663V40.7996C53.4795 41.5111 52.8809 42.0943 52.1767 42.0943H51.942ZM50.7566 36.6823V36.5657C50.7566 35.8542 51.3434 35.1544 52.0594 35.1544C52.8927 35.0377 53.5969 35.6209 53.7142 36.449V36.5657C53.7142 37.2772 53.1274 37.977 52.4115 37.977H52.2941C51.4608 37.977 50.7566 37.5104 50.7566 36.6823ZM49.935 33.0316C49.935 32.9149 49.8177 32.6817 49.8177 32.565C49.8177 31.9818 50.1698 31.387 50.8857 31.1537C51.719 30.9205 52.5406 31.2704 52.7753 32.0985C52.7753 32.2151 52.8927 32.4484 52.8927 32.565C52.8927 33.1482 52.5406 33.7431 51.942 33.9763C51.8246 33.9763 51.5899 34.093 51.4725 34.093C50.7566 33.9763 50.1698 33.6264 49.935 33.0316ZM48.2684 29.6141C48.1511 29.3808 48.0337 29.1476 48.0337 28.786C48.0337 28.3194 48.2684 27.8412 48.7496 27.4913C49.4656 27.0248 50.4045 27.2581 50.7683 27.9579C50.8857 28.1911 51.0031 28.4244 51.0031 28.786C51.0031 29.2525 50.7683 29.7308 50.2871 30.0807C50.0524 30.1973 49.8177 30.3139 49.4538 30.3139C49.1017 30.3139 48.6205 30.0807 48.2684 29.6025V29.6141ZM45.8976 26.6749C45.6629 26.4416 45.4281 25.9634 45.4281 25.6135C45.4281 25.2636 45.5455 24.902 45.8976 24.5521C46.4844 23.9689 47.4351 23.9689 48.0337 24.5521C48.3858 24.7853 48.5032 25.2636 48.5032 25.6135C48.5032 25.9634 48.3858 26.325 48.0337 26.6749C47.799 26.9081 47.3178 27.1414 46.9657 27.1414C46.6136 27.0248 46.2497 26.9081 45.8976 26.6749Z" fill="black"/>
<path id="Vector_9" d="M17.3539 46.923C17.2365 46.6898 17.2365 46.4565 17.2365 46.2115C17.2365 45.6284 17.4712 45.1502 18.0698 44.9169C18.7857 44.567 19.7247 44.8002 20.0885 45.5001C20.2059 45.7333 20.2059 45.9666 20.2059 46.2115C20.2059 46.7947 19.9711 47.2729 19.3726 47.5062C19.1378 47.6229 18.9031 47.6229 18.6566 47.6229C18.1872 47.7395 17.5886 47.3896 17.3539 46.9114V46.923ZM15.8163 42.6775V42.3275C15.8163 41.6161 16.2858 41.0329 17.0018 40.9162C17.8351 40.683 18.5393 41.1495 18.774 41.9776V42.3275C18.774 43.039 18.3045 43.6222 17.5886 43.7388H17.2365C16.5205 43.8555 15.9337 43.3889 15.8163 42.6775ZM15.2178 38.3269C15.2178 37.4988 15.9337 36.7989 16.6379 36.7989C17.4712 36.7989 18.1754 37.3821 18.1754 38.2103C18.1754 39.0384 17.4595 39.6216 16.7553 39.6216C15.922 39.7382 15.2178 39.155 15.2178 38.3269ZM16.8726 35.6209C16.1567 35.5043 15.6872 34.9094 15.6872 34.2096V33.8597C15.922 33.0316 16.6379 32.565 17.4595 32.7983C18.1754 32.9149 18.6449 33.5098 18.6449 34.2096V34.5595C18.5275 35.271 17.9289 35.7375 17.2247 35.7375C17.1074 35.7375 16.99 35.7376 16.8726 35.6209ZM17.9407 31.6203C17.4712 31.387 17.1074 30.7921 17.1074 30.3256C17.1074 30.0923 17.1074 29.859 17.2247 29.6141C17.5768 28.9026 18.5275 28.5527 19.2435 28.9026C19.7129 29.1359 20.0768 29.7307 20.0768 30.1973C20.0768 30.4306 20.0768 30.6638 19.9594 30.9088C19.7247 31.3753 19.1261 31.7369 18.6566 31.7369C18.3045 31.8535 18.0698 31.7369 17.9407 31.6203ZM19.842 28.0862C19.4899 27.8529 19.2552 27.3747 19.2552 26.9081C19.2552 26.5582 19.3726 26.1966 19.6073 25.9634C20.0768 25.3802 21.0274 25.2519 21.7434 25.7301C22.0955 25.9634 22.3302 26.4416 22.3302 26.9081C22.3302 27.258 22.2128 27.6196 21.9781 27.8529C21.7434 28.2028 21.2622 28.4361 20.7927 28.4361C20.4406 28.3194 20.2059 28.3194 19.842 28.0862ZM22.6823 24.902C22.4476 24.6687 22.3302 24.3188 22.3302 24.0739C22.3302 23.6073 22.5649 23.1291 22.917 22.8958C23.633 22.4293 24.4545 22.5459 25.0531 23.1291C25.2879 23.3624 25.4052 23.7123 25.4052 23.9572C25.4052 24.4238 25.1705 24.902 24.8184 25.1353C24.5837 25.3685 24.2316 25.4852 23.8677 25.4852C23.3982 25.4852 22.917 25.3685 22.6823 24.902ZM26.0038 22.5459C25.8864 22.3126 25.8864 22.196 25.8864 21.9627C25.8864 21.3795 26.2385 20.9013 26.8371 20.6681C27.553 20.3181 28.492 20.6681 28.7384 21.3795C28.8558 21.6128 28.8558 21.7295 28.8558 21.9627C28.8558 22.5459 28.5037 23.0241 28.0225 23.2574C27.7878 23.374 27.6704 23.374 27.4357 23.374C26.8488 23.4907 26.2503 23.1408 26.0155 22.5459H26.0038Z" fill="black"/>
</g>
</g>
</g>
<defs>
<clipPath id="clip0_2056_10807">
<rect width="69" height="72" fill="white" transform="translate(0.5)"/>
</clipPath>
</defs>
</svg>
