<svg width="90" height="73" viewBox="0 0 90 73" fill="none" xmlns="http://www.w3.org/2000/svg">
<g id="_&#229;&#175;&#131;&#226;&#145;&#184;&#226;&#148;&#129;_&#239;&#167;&#143;&#226;&#145;&#164;&#235;&#177;&#182;" clip-path="url(#clip0_2056_9448)">
<g id="338, Global, Earth, Green, World, Energy">
<g id="Group">
<path id="Vector" d="M36.2774 2.09601V23.2364C30.5695 23.2364 25.3193 21.8577 20.6797 19.5598C23.7779 9.29601 29.4859 2.40239 36.1248 2.2492C36.1248 2.09601 36.2774 2.09601 36.2774 2.09601Z" fill="#469BE0"/>
<path id="Vector_2" d="M36.5826 2.09601C46.3045 2.09601 54.9581 6.23218 61.1239 12.6662C58.4989 15.4237 55.416 17.7215 52.0125 19.4066C48.9296 9.14282 43.2064 2.2492 36.5674 2.09601H36.5826Z" fill="#469BE0"/>
<path id="Vector_3" d="M54.3475 36.1045H36.2773V23.0832C41.9853 23.0832 47.2355 21.7045 51.8751 19.4066C53.4166 24.3087 54.3475 30.13 54.3475 36.1045Z" fill="#469BE0"/>
<path id="Vector_4" d="M20.695 19.4066C19.1535 24.3088 18.3751 29.9768 18.3751 36.1045H1.99902C1.99902 26.913 5.55507 18.6407 11.4157 12.6662C14.1934 15.4236 17.2763 17.7215 20.6797 19.4066H20.695Z" fill="#469BE0"/>
<path id="Vector_5" d="M36.2779 36.1045V49.1258C30.57 49.1258 25.3198 50.5045 20.6802 52.8024C19.1387 47.9002 18.3604 42.2322 18.3604 36.1045H36.2627H36.2779Z" fill="#469BE0"/>
<path id="Vector_6" d="M20.6948 52.8024C23.7777 63.0662 29.501 69.9598 36.1399 70.113C26.418 70.113 17.7645 65.9768 11.5986 59.5428L11.7513 59.3896C14.2237 56.7853 17.3066 54.6407 20.71 52.8024H20.6948Z" fill="#469BE0"/>
<path id="Vector_7" d="M36.2774 49.1258V70.2662H36.1248C29.4859 70.113 23.7779 63.2194 20.6797 52.9556C25.3193 50.5045 30.7221 49.1258 36.2774 49.1258Z" fill="#65B2FE"/>
<path id="Vector_8" d="M18.3752 36.1045C18.3752 42.2322 19.1536 47.9002 20.6951 52.8024C17.2916 54.4875 14.2087 56.7853 11.5836 59.5428V59.696C5.72304 53.5683 2.16699 45.296 2.16699 36.2577L18.3752 36.1045Z" fill="#65B2FE"/>
<path id="Vector_9" d="M70.709 36.1045H54.3481C54.3481 29.9768 53.5698 24.3088 52.0283 19.4066C55.4317 17.7215 58.5147 15.4236 61.1397 12.6662C67.0003 18.7939 70.709 27.0662 70.709 36.1045Z" fill="#65B2FE"/>
<path id="Vector_10" d="M36.2773 23.2364V36.1045H18.375C18.375 29.9768 19.1534 24.3087 20.6948 19.4066C25.3345 21.8577 30.7372 23.2364 36.2926 23.2364H36.2773Z" fill="#65B2FE"/>
<path id="Vector_11" d="M36.5833 2.09601C43.2223 2.2492 48.9302 9.14282 52.0284 19.4066C47.3888 21.8577 41.986 23.0832 36.4307 23.0832V2.09601H36.5833Z" fill="#65B2FE"/>
<path id="Vector_12" d="M11.5836 12.6662C17.7495 6.23218 26.5556 2.2492 36.1249 2.09601C29.4859 2.2492 23.778 9.14282 20.6798 19.4066C17.2763 17.7215 14.1934 15.4237 11.5684 12.6662H11.5836Z" fill="#65B2FE"/>
<path id="Vector_13" d="M54.3484 38.096C53.2648 38.096 52.349 37.1768 52.349 36.1045C52.349 30.4364 51.5707 24.7683 50.1818 19.8662C47.2515 10.2151 42.0014 4.08747 36.5987 3.93428C35.5151 3.93428 34.752 3.01513 34.752 1.94279C34.752 0.87045 35.6829 0.104492 36.7665 0.104492C40.4752 0.257684 44.1839 2.09598 47.2668 5.61939C50.0445 8.83641 52.3643 13.4322 54.0584 18.7939C55.5998 24.0024 56.3782 29.9768 56.3782 36.1045C56.2256 37.1768 55.4472 38.096 54.3636 38.096H54.3484Z" fill="black"/>
<path id="Vector_14" d="M36.1253 72.1045C32.2641 71.9513 28.708 70.113 25.6251 66.5896C22.8474 63.3726 20.5276 58.7768 18.8335 53.4151C17.292 48.2066 16.5137 42.2322 16.5137 36.1045C16.5137 29.9768 17.292 24.1556 18.8335 18.7939C20.375 13.4322 22.8474 8.83641 25.6251 5.61939C28.708 2.09598 32.2641 0.104492 36.1253 0.104492C37.2089 0.104492 38.1247 0.87045 38.1247 1.94279C38.1247 3.01513 37.3463 3.93428 36.278 3.93428C30.7226 4.08747 25.6251 10.2151 22.6948 19.8662C21.3059 24.7683 20.5276 30.2832 20.5276 36.1045C20.5276 41.9258 21.3059 47.4407 22.6948 52.3428C25.6251 61.9939 30.8752 68.1215 36.278 68.2747C37.3616 68.2747 38.1247 69.1939 38.1247 70.2662C37.972 71.3385 37.1937 72.1045 36.1253 72.1045Z" fill="black"/>
<path id="Vector_15" d="M36.2781 25.0747C30.4175 25.0747 24.8469 23.696 19.7646 21.0917C16.2086 19.2534 12.9731 16.8024 10.0428 13.8917C9.26439 13.1258 9.26439 11.9002 10.0428 11.1343C10.8211 10.3683 12.0573 10.3683 12.8204 11.1343C15.2929 13.7385 18.2232 15.8832 21.4587 17.5683C26.0831 19.8662 31.028 21.0917 36.2781 21.0917C41.5283 21.0917 46.4731 19.8662 51.0975 17.5683C54.3331 15.8832 57.2786 13.7385 59.7358 11.1343C60.5142 10.3683 61.7504 10.3683 62.5135 11.1343C63.2919 11.9002 63.2919 13.1258 62.5135 13.7385C59.7358 16.6492 56.5003 19.1002 52.7916 20.9385C47.8467 23.696 41.9861 25.0747 36.2781 25.0747Z" fill="black"/>
<path id="Vector_16" d="M11.5839 61.5343C11.1261 61.5343 10.653 61.3811 10.1951 61.0747C9.41674 60.3088 9.41674 59.0832 10.1951 58.3173C12.9728 55.4066 16.2083 53.1088 19.7644 51.2705C24.8619 48.6662 30.4172 47.2875 36.2779 47.2875C37.3615 47.2875 38.2772 48.2066 38.2772 49.279C38.2772 50.3513 37.3462 51.2705 36.2779 51.2705C31.0277 51.2705 26.0828 52.496 21.4585 54.7939C18.2229 56.479 15.43 58.4705 12.9728 61.0747C12.6675 61.2279 12.0418 61.5343 11.5839 61.5343Z" fill="black"/>
<path id="Vector_17" d="M70.7088 38.096H1.99932C0.91572 38.096 0 37.1768 0 36.1045C0 35.0321 0.930982 34.113 1.99932 34.113H70.541C71.6245 34.113 72.5403 35.0321 72.5403 36.1045C72.5403 37.1768 71.6093 38.096 70.6936 38.096H70.7088Z" fill="black"/>
<path id="Vector_18" d="M36.2776 72.1045C35.194 72.1045 34.2783 71.1853 34.2783 70.113V2.09598C34.2783 1.02364 35.2093 0.104492 36.2776 0.104492C37.346 0.104492 38.277 1.02364 38.277 2.09598V70.113C38.277 71.1853 37.346 72.1045 36.2776 72.1045Z" fill="black"/>
<path id="Vector_19" d="M36.2778 72.1045H35.9725C26.098 72.1045 16.834 68.1215 10.0424 60.9215C3.55605 54.1811 0 45.4492 0 36.1045C0 26.7598 3.55605 18.0279 10.0424 11.2875C16.834 4.24066 26.098 0.257684 35.9725 0.104492H36.4304C46.3049 0.104492 55.5689 4.08747 62.3605 11.2875C68.8469 18.0279 72.4029 26.7598 72.4029 36.1045C72.4029 37.1768 71.4719 38.096 70.3883 38.096C69.3047 38.096 68.389 37.1768 68.389 36.1045C68.389 27.8322 65.1535 19.8662 59.4302 13.8917C53.2491 7.61088 45.0687 3.93428 36.2778 3.93428H35.9725C27.1664 3.93428 18.8333 7.45768 12.8201 13.8917C7.11209 19.8662 3.86129 27.8322 3.86129 36.1045C3.86129 44.3768 7.09683 52.3428 12.8201 58.3173C19.0012 64.5981 27.1816 68.2747 35.9725 68.2747H36.1251C37.2088 68.2747 38.1245 69.1939 38.1245 70.2662C38.2771 71.1853 37.3461 72.1045 36.2778 72.1045Z" fill="black"/>
<path id="Vector_20" d="M68.4807 69.0253C52.2572 71.6755 41.2839 60.7989 43.97 44.6985C51.4789 43.4117 58.5604 45.0355 63.3069 49.7538C68.4044 54.8092 69.7017 62.0092 68.4807 69.0253Z" fill="#80AF52"/>
<path id="Vector_21" d="M66.1455 53.4305C66.9239 51.9752 67.9617 50.5964 69.1674 49.4015C73.9139 44.6832 80.9954 43.0594 88.5043 44.3462C90.9157 58.7309 82.4606 69.2705 68.389 69.01C69.3353 63.6177 68.9079 58.0415 66.1455 53.4152V53.4305Z" fill="#A5C63B"/>
<path id="Vector_22" d="M68.9075 65.3335C68.648 65.3335 68.3885 65.2415 68.1291 64.9964C67.7018 64.5675 67.7018 63.8781 68.1291 63.4492L81.6818 49.5701C82.1091 49.1411 82.8111 49.1411 83.2385 49.5701C83.6658 49.999 83.6658 50.6883 83.2385 51.1173L69.6858 64.9964C69.4264 65.1649 69.1669 65.3335 68.9075 65.3335Z" fill="black"/>
<path id="Vector_23" d="M77.2871 56.77C76.7682 56.77 76.3409 56.433 76.2493 55.8202C76.1578 55.2228 76.6004 54.7019 77.1956 54.6253L82.3694 53.8594C82.9799 53.7675 83.4988 54.1964 83.5751 54.8092C83.6667 55.4066 83.2241 55.9275 82.6288 56.0041L77.455 56.77H77.2871Z" fill="black"/>
<path id="Vector_24" d="M72.8916 61.2279C72.3727 61.2279 71.9454 60.8909 71.8538 60.2781C71.7623 59.6807 72.2048 59.1598 72.8001 59.0832L77.806 58.3939C78.4165 58.302 78.9354 58.7309 79.0117 59.3437C79.1033 59.9411 78.6607 60.462 78.0655 60.5386L73.0595 61.2279H72.8916Z" fill="black"/>
<path id="Vector_25" d="M68.9079 65.3335C68.2975 65.3335 67.8701 64.9045 67.8701 64.3071C67.8701 63.7096 68.2975 63.1888 68.9079 63.1888L73.3186 62.9283C73.9291 62.9283 74.448 63.3573 74.448 63.9547C74.448 64.5522 74.0207 65.073 73.4102 65.073L68.9232 65.3335H68.9079Z" fill="black"/>
<path id="Vector_26" d="M74.0972 59.9411H73.9293C73.3188 59.8492 72.8915 59.3436 72.9831 58.7462L73.6699 53.2619C73.7614 52.6645 74.2803 52.2355 74.8756 52.3121C75.486 52.4041 75.9134 52.9096 75.8218 53.507L75.135 58.9913C75.135 59.5887 74.6161 59.9411 74.0972 59.9411Z" fill="black"/>
<path id="Vector_27" d="M68.481 70.0517C68.2216 70.0517 67.9621 69.9598 67.7026 69.7147L49.4035 51.5615C48.9762 51.1326 48.9762 50.4432 49.4035 50.0143C49.8308 49.5853 50.5329 49.5853 50.9602 50.0143L69.3509 68.2594C69.7783 68.6883 69.7783 69.3777 69.3509 69.8066C68.9999 69.9751 68.7405 70.067 68.481 70.067V70.0517Z" fill="black"/>
<path id="Vector_28" d="M55.4473 57.199H55.2794L49.9225 56.433C49.312 56.3411 48.8847 55.8356 48.9762 55.2381C49.0678 54.6407 49.5867 54.2117 50.1819 54.2883L55.5389 55.0543C56.1494 55.1462 56.5767 55.6517 56.4851 56.2492C56.4851 56.77 56.0578 57.199 55.4473 57.199Z" fill="black"/>
<path id="Vector_29" d="M60.0254 61.7335H59.8576L54.5006 60.9675C53.8901 60.8756 53.4628 60.3701 53.5544 59.7726C53.6459 59.1752 54.1648 58.7462 54.7601 58.8228L60.117 59.5888C60.7275 59.6807 61.1548 60.1862 61.0633 60.7837C61.0633 61.3045 60.6359 61.7181 60.0254 61.7181V61.7335Z" fill="black"/>
<path id="Vector_30" d="M64.5889 66.2832H64.421L59.0641 65.5173C58.4536 65.4254 58.0263 64.9198 58.1178 64.3224C58.2094 63.7249 58.7283 63.296 59.3235 63.3879L64.6805 64.1539C65.291 64.2458 65.7183 64.7513 65.6267 65.3488C65.6267 65.8696 65.1994 66.2985 64.5889 66.2985V66.2832Z" fill="black"/>
<path id="Vector_31" d="M58.545 60.2015C58.0261 60.2015 57.5988 59.8645 57.5072 59.2517L56.7288 53.936C56.6373 53.3386 57.0799 52.8177 57.6751 52.7411C58.2856 52.6492 58.8045 53.0781 58.8808 53.6909L59.6591 59.0066C59.7507 59.6041 59.3081 60.1249 58.7129 60.2015H58.545Z" fill="black"/>
<path id="Vector_32" d="M63.1241 64.736C62.6052 64.736 62.1779 64.3989 62.0863 63.8015L61.3079 58.4858C61.2164 57.8883 61.659 57.3675 62.2542 57.2909C62.8494 57.2143 63.3836 57.6279 63.4599 58.2406L64.2382 63.5564C64.3298 64.1538 63.8872 64.6747 63.292 64.7513H63.1241V64.736Z" fill="black"/>
<path id="Vector_33" d="M68.9083 70.0517H68.4809C67.8705 70.0517 67.4431 69.5309 67.4431 68.9334C67.4431 68.336 67.962 67.9071 68.5725 67.9071H68.9998C74.6163 67.9071 79.3627 66.1147 82.7204 62.6832C86.948 58.4858 88.6726 52.3122 87.6347 45.2041C80.4616 44.1777 74.25 45.8935 70.0224 50.0909C68.893 51.2092 67.9468 52.496 67.1684 53.8594C67.0005 54.1964 66.6495 54.4569 66.2222 54.4569C65.6117 54.4569 65.0928 53.936 65.0928 53.3386C65.0928 53.17 65.0928 53.0015 65.1843 52.9096V52.8177C66.0543 51.2705 67.1684 49.8152 68.3741 48.5283C70.8771 46.0466 73.8989 44.3309 77.5313 43.473C80.9805 42.6152 84.7044 42.5232 88.6726 43.136C89.0999 43.2279 89.4509 43.5649 89.5425 43.9939C90.2293 47.9309 90.153 51.6228 89.1915 55.039C88.2452 58.639 86.5206 61.6415 84.094 64.1232C80.3853 68.0603 75.1199 70.0364 68.893 70.0364L68.9083 70.0517Z" fill="black"/>
<path id="Vector_34" d="M63.6427 70.4807C57.5074 70.4807 52.1657 68.5045 48.3654 64.6594C45.8625 62.1777 44.1379 59.1751 43.2679 55.5751C42.398 52.1437 42.3217 48.4671 42.9169 44.53C43.0085 44.1011 43.3442 43.7641 43.7868 43.6722C45.5114 43.4117 47.1597 43.2432 48.7928 43.2432C54.9281 43.2432 60.2698 45.2194 64.07 49.0645C65.1994 50.1828 66.222 51.5462 67.0919 52.9249C68.9844 56.1726 69.9459 60.033 69.9459 64.2305C69.9459 65.8543 69.778 67.4781 69.5186 69.1939C69.427 69.6228 69.0912 69.9598 68.6486 70.0517C66.924 70.3122 65.2757 70.4807 63.6427 70.4807ZM44.9162 45.633C43.8784 52.7411 45.603 58.9147 49.8306 63.1122C53.2798 66.5437 58.0263 68.336 63.5511 68.336C64.8484 68.336 66.1457 68.2441 67.4429 68.0756C67.6108 66.7888 67.7024 65.5019 67.7024 64.2151C67.7024 60.3547 66.8324 56.8466 65.1078 53.936C64.4211 52.6492 63.4748 51.5309 62.437 50.5045C58.9878 47.073 54.2413 45.2807 48.7165 45.2807C47.5871 45.3726 46.3051 45.4492 44.9162 45.6177V45.633Z" fill="black"/>
</g>
</g>
</g>
<defs>
<clipPath id="clip0_2056_9448">
<rect width="90" height="72" fill="white" transform="translate(0 0.104492)"/>
</clipPath>
</defs>
</svg>
