<?xml version="1.0" encoding="UTF-8"?>
<svg xmlns="http://www.w3.org/2000/svg" xmlns:xlink="http://www.w3.org/1999/xlink" width="373.02pt" height="114.09pt" viewBox="0 0 373.02 114.09" version="1.1">
<defs>
<clipPath id="clip1">
  <path d="M 17 32 L 62 32 L 62 114.089844 L 17 114.089844 Z M 17 32 "/>
</clipPath>
<clipPath id="clip2">
  <path d="M 172 32 L 217 32 L 217 114.089844 L 172 114.089844 Z M 172 32 "/>
</clipPath>
<clipPath id="clip3">
  <path d="M 304 33 L 373.019531 33 L 373.019531 114 L 304 114 Z M 304 33 "/>
</clipPath>
</defs>
<g id="surface1">
<path style=" stroke:none;fill-rule:nonzero;fill:rgb(97.299194%,87.799072%,0.799561%);fill-opacity:1;" d="M 0.0078125 2.828125 C 4.347656 1.878906 8.699219 0.929688 13.058594 0 C 13.066406 37.359375 13.058594 74.730469 13.058594 112.101563 C 8.699219 112.101563 4.347656 112.101563 0.0078125 112.101563 C -0.00390625 75.679688 -0.00390625 39.25 0.0078125 2.828125 "/>
<path style=" stroke:none;fill-rule:nonzero;fill:rgb(97.299194%,87.799072%,0.799561%);fill-opacity:1;" d="M 154.628906 2.851563 C 158.976563 1.890625 163.328125 0.929688 167.6875 0.0117188 C 167.6875 37.371094 167.6875 74.730469 167.6875 112.101563 C 163.328125 112.101563 158.976563 112.101563 154.628906 112.101563 C 154.617188 75.679688 154.617188 39.261719 154.628906 2.851563 "/>
<g clip-path="url(#clip1)" clip-rule="nonzero">
<path style=" stroke:none;fill-rule:nonzero;fill:rgb(97.299194%,87.799072%,0.799561%);fill-opacity:1;" d="M 17.617188 72.21875 C 27.65625 59.058594 37.71875 45.921875 47.757813 32.761719 C 51.1875 35.210938 54.605469 37.679688 58.019531 40.148438 C 49.769531 50.578125 41.347656 60.878906 33.199219 71.378906 C 42.347656 83.261719 52.46875 94.589844 61.96875 106.28125 C 58.605469 108.890625 55.238281 111.5 51.867188 114.089844 C 40.4375 100.140625 29.019531 86.191406 17.617188 72.21875 "/>
</g>
<path style=" stroke:none;fill-rule:nonzero;fill:rgb(97.299194%,87.799072%,0.799561%);fill-opacity:1;" d="M 87.40625 83.460938 C 85.425781 87.859375 85.296875 93.261719 87.347656 97.660156 C 89.449219 101.929688 94.6875 103.171875 99.066406 102.789063 C 106.417969 102.089844 113.546875 99.019531 119.066406 94.109375 C 119.035156 88.109375 119.066406 82.109375 119.046875 76.109375 C 112.667969 76.21875 106.269531 75.800781 99.898438 76.398438 C 95.078125 76.949219 89.65625 78.761719 87.40625 83.460938 Z M 78.457031 40.109375 C 88.597656 34.660156 100.527344 31.988281 111.957031 34.070313 C 118.269531 35.191406 124.378906 38.75 127.507813 44.480469 C 131.085938 50.660156 131.636719 58 131.566406 64.988281 C 131.558594 80.691406 131.566406 96.378906 131.566406 112.070313 C 128.328125 112.101563 125.105469 112.121094 121.878906 112.089844 C 121.417969 109.289063 120.816406 106.511719 120.285156 103.730469 C 111.769531 110.351563 100.757813 114.898438 89.835938 112.851563 C 83.046875 111.78125 76.976563 106.910156 74.808594 100.328125 C 72.769531 93.980469 72.835938 86.78125 75.519531 80.621094 C 78.238281 74.421875 84.40625 70.480469 90.777344 68.828125 C 100.007813 66.398438 109.628906 67.46875 119.046875 67.21875 C 119.066406 61.648438 119.386719 55.628906 116.378906 50.679688 C 114.21875 46.960938 109.996094 44.929688 105.828125 44.570313 C 97.71875 43.910156 89.71875 46.28125 82.296875 49.359375 C 81.007813 46.28125 79.726563 43.199219 78.457031 40.109375 "/>
<g clip-path="url(#clip2)" clip-rule="nonzero">
<path style=" stroke:none;fill-rule:nonzero;fill:rgb(97.299194%,87.799072%,0.799561%);fill-opacity:1;" d="M 202.417969 32.769531 C 205.847656 35.210938 209.257813 37.679688 212.679688 40.160156 C 204.347656 50.621094 195.988281 61.058594 187.667969 71.53125 C 197.328125 83.109375 206.976563 94.679688 216.628906 106.269531 C 213.257813 108.890625 209.90625 111.53125 206.488281 114.089844 C 195.128906 100.101563 183.667969 86.191406 172.277344 72.21875 C 182.328125 59.070313 192.367188 45.921875 202.417969 32.769531 "/>
</g>
<path style=" stroke:none;fill-rule:nonzero;fill:rgb(97.299194%,87.799072%,0.799561%);fill-opacity:1;" d="M 255.21875 76.320313 C 250.695313 76.828125 245.667969 78.089844 242.929688 82.050781 C 240.148438 86.238281 239.996094 91.808594 241.488281 96.5 C 242.898438 100.828125 247.636719 102.921875 251.929688 102.828125 C 259.058594 102.71875 266.066406 100.011719 271.746094 95.769531 C 272.609375 95.03125 273.886719 94.328125 273.675781 92.980469 C 273.738281 87.359375 273.648438 81.730469 273.6875 76.109375 C 267.527344 76.191406 261.359375 75.871094 255.21875 76.320313 Z M 233.117188 40.128906 C 243.347656 34.601563 255.4375 31.929688 266.957031 34.140625 C 273.246094 35.300781 279.226563 38.96875 282.308594 44.710938 C 285.96875 51.160156 286.308594 58.789063 286.257813 66.03125 C 286.238281 81.390625 286.257813 96.738281 286.246094 112.089844 C 283.039063 111.871094 279.585938 112.601563 276.527344 111.761719 C 275.835938 109.109375 275.546875 106.378906 274.996094 103.710938 C 266.578125 110.230469 255.796875 114.761719 244.996094 112.949219 C 238.335938 112.011719 232.179688 107.53125 229.789063 101.160156 C 227.46875 94.980469 227.46875 87.898438 229.726563 81.699219 C 232.039063 75.429688 237.828125 71.109375 244.078125 69.230469 C 253.65625 66.269531 263.808594 67.488281 273.675781 67.21875 C 273.71875 61.71875 274.058594 55.808594 271.167969 50.878906 C 268.9375 46.859375 264.359375 44.761719 259.917969 44.519531 C 251.996094 44.039063 244.207031 46.328125 236.976563 49.359375 C 235.679688 46.28125 234.398438 43.210938 233.117188 40.128906 "/>
<g clip-path="url(#clip3)" clip-rule="nonzero">
<path style=" stroke:none;fill-rule:nonzero;fill:rgb(97.299194%,87.799072%,0.799561%);fill-opacity:1;" d="M 333.425781 44.570313 C 324.425781 46.378906 319.398438 55.480469 318.257813 63.949219 C 316.925781 74.019531 316.808594 85.058594 321.859375 94.210938 C 328.199219 105.851563 347.199219 106.398438 354.488281 95.46875 C 359.109375 88.621094 359.757813 80 359.636719 71.96875 C 359.386719 64.28125 358.117188 56.019531 352.925781 50 C 348.207031 44.519531 340.246094 43.050781 333.425781 44.570313 Z M 330.15625 34.289063 C 340.277344 32.449219 351.65625 33.589844 359.917969 40.210938 C 367.289063 45.949219 371.15625 55.070313 372.359375 64.128906 C 373.558594 73.75 373.296875 83.789063 370.046875 93.011719 C 367.136719 101.269531 360.71875 108.371094 352.4375 111.429688 C 344.609375 114.261719 335.898438 114.460938 327.847656 112.449219 C 319.65625 110.398438 312.609375 104.589844 308.796875 97.101563 C 304.699219 89.121094 303.777344 79.921875 304.058594 71.078125 C 304.386719 62.21875 306.277344 53.011719 311.726563 45.808594 C 316.148438 39.839844 322.867188 35.679688 330.15625 34.289063 "/>
</g>
</g>
</svg>
