<?xml version="1.0" encoding="UTF-8"?>
<!-- Generator: Adobe Illustrator 15.0.2, SVG Export Plug-In  -->
<!DOCTYPE svg PUBLIC "-//W3C//DTD SVG 1.1//EN" "http://www.w3.org/Graphics/SVG/1.1/DTD/svg11.dtd" [
	<!ENTITY ns_flows "http://ns.adobe.com/Flows/1.0/">
]>
<svg version="1.1" xmlns="http://www.w3.org/2000/svg" xmlns:xlink="http://www.w3.org/1999/xlink" xmlns:a="http://ns.adobe.com/AdobeSVGViewerExtensions/3.0/" x="0px" y="0px" width="172px" height="44px" viewBox="0 0 172 44" enable-background="new 0 0 172 44" xml:space="preserve">
<defs>
</defs>
<path fill="#ED2000" d="M90.062,5.338H69.008c-1.645,0-3.142,1.332-3.142,2.971c0,1.643,1.497,2.975,3.142,2.975h7.6v24.444  c0,1.644,1.329,3.149,2.971,3.149c1.643,0,2.971-1.506,2.971-3.149V11.284h7.512c1.64,0,3.123-1.332,3.123-2.975  C93.185,6.67,91.701,5.338,90.062,5.338z"/>
<path fill="#ED2000" d="M22.265,37.438c0,0,1.04,1.65,3.124,1.65c2.045,0,3.726-1.078,3.726-3.714V8.357  c0-1.641-1.33-3.145-2.969-3.145c-1.64,0-2.971,1.504-2.971,3.145V28.37L6.849,6.779c0,0-1.039-1.651-3.121-1.651  C1.681,5.127,0,6.206,0,8.84v27.021c0,1.642,1.33,3.153,2.971,3.153c1.641,0,2.971-1.512,2.971-3.153V15.846L22.265,37.438z"/>
<path fill="#ED2000" d="M116.798,32.637h-13.114l-0.028-7.548h11.526c1.642,0,3.056-1.332,3.056-2.972  c0-1.638-1.414-2.972-3.056-2.972h-11.526v-7.567h13.115c1.689,0,3.141-1.368,3.141-3.056c0-1.69-1.451-3.059-3.141-3.059h-14.418  c-2.521,0.01-4.628,2.062-4.639,4.585l0,0V34.18l0,0c0.011,2.523,2.055,4.569,4.58,4.572h14.504c1.689,0,3.144-1.369,3.144-3.058  C119.941,34.004,118.487,32.637,116.798,32.637z"/>
<path fill="#ED2000" d="M68.145,34.694C68.142,34.685,54.38,6.82,54.38,6.82c-0.469-0.995-1.83-1.738-3.169-1.738  c-1.47,0-2.735,0.834-3.343,2.046c0,0-12.867,26.552-12.899,26.631c-0.228,0.478-0.361,1.011-0.361,1.575  c0,1.698,1.166,3.127,2.755,3.562c0.29,0.094,0.604,0.151,0.927,0.151h14.33c1.643,0,3.27-1.334,3.27-2.975S54.262,33.1,52.62,33.1  H41.88l9.334-19.264c0,0,11.589,23.452,11.592,23.456c0.717,1.474,2.686,2.297,4.163,1.579  C68.444,38.155,68.864,36.172,68.145,34.694z"/>
<polygon fill="#E4281B" points="152.669,0.442 133.398,14.891 133.398,29.34 152.669,43.79 171.94,29.34 171.94,14.891 "/>
<polygon fill="#FF3C1E" points="152.669,0 162.502,7.372 152.669,14.744 "/>
<polygon fill="#C30000" points="142.837,7.372 152.669,14.744 142.837,22.116 "/>
<polygon fill="#C30000" points="162.502,7.372 172.334,14.744 162.502,22.116 "/>
<polygon fill="#C30000" points="162.502,22.116 172.334,29.489 162.502,36.86 "/>
<polygon fill="#C30000" points="142.837,22.116 152.669,29.489 142.837,36.86 "/>
<polygon fill="#E4281B" points="162.502,7.372 152.669,14.744 162.502,22.116 "/>
<polygon fill="#A50000" points="172.334,14.744 162.502,22.116 172.334,29.489 "/>
<polygon fill="#E4281B" points="162.502,22.116 152.669,29.489 162.502,36.86 "/>
<polygon fill="#A50000" points="142.837,22.116 133.005,29.489 142.837,36.86 "/>
<polygon fill="#A50000" points="142.837,7.372 133.005,14.744 142.837,22.116 "/>
<polygon fill="#E4281B" points="152.669,0 142.837,7.372 152.669,14.744 "/>
<polygon fill="#E4281B" points="152.669,14.744 142.837,22.116 152.669,29.489 "/>
<polygon fill="#E4281B" points="152.669,29.489 142.837,36.86 152.669,44.232 "/>
<polygon fill="#FF3C1E" points="152.669,14.744 162.502,22.116 152.669,29.489 "/>
<polygon fill="#FF3C1E" points="133.005,14.744 142.837,22.116 133.005,29.489 "/>
<polygon fill="#FF3C1E" points="152.669,29.489 162.502,36.86 152.669,44.232 "/>
</svg>