<?xml version="1.0" encoding="UTF-8" standalone="no"?>
<!-- Created with Inkscape (http://www.inkscape.org/) -->
<svg
   xmlns:svg="http://www.w3.org/2000/svg"
   xmlns="http://www.w3.org/2000/svg"
   xmlns:xlink="http://www.w3.org/1999/xlink"
   version="1.0"
   width="265.08728"
   height="98.001755"
   id="svg2">
  <defs
     id="defs4">
    <linearGradient
       id="linearGradient3251">
      <stop
         id="stop3253"
         style="stop-color:#491058;stop-opacity:1"
         offset="0" />
      <stop
         id="stop3261"
         style="stop-color:#3c4def;stop-opacity:1"
         offset="0.17746717" />
      <stop
         id="stop3259"
         style="stop-color:#44dea5;stop-opacity:1"
         offset="0.43174848" />
      <stop
         id="stop3265"
         style="stop-color:#58a90d;stop-opacity:1"
         offset="0.6771943" />
      <stop
         id="stop3263"
         style="stop-color:#fffe0e;stop-opacity:1"
         offset="0.85736197" />
      <stop
         id="stop3255"
         style="stop-color:#f46900;stop-opacity:1"
         offset="1" />
    </linearGradient>
    <linearGradient
       x1="247.13409"
       y1="523.79932"
       x2="451.91751"
       y2="523.79932"
       id="linearGradient2448"
       xlink:href="#linearGradient3251"
       gradientUnits="userSpaceOnUse"
       gradientTransform="matrix(1.1726475,0,0,1.1726475,-284.87056,-564.23193)" />
    <linearGradient
       x1="40.857021"
       y1="146.42857"
       x2="212.00011"
       y2="146.42857"
       id="linearGradient3236"
       xlink:href="#linearGradient3251"
       gradientUnits="userSpaceOnUse"
       gradientTransform="matrix(1.5489219,0,0,1.5489219,-22.427314,-97.74325)" />
    <linearGradient
       x1="40.857021"
       y1="146.42857"
       x2="212.00011"
       y2="146.42857"
       id="linearGradient3258"
       xlink:href="#linearGradient3251"
       gradientUnits="userSpaceOnUse"
       gradientTransform="matrix(1.5489219,0,0,1.5489219,-22.427314,-97.74325)" />
    <linearGradient
       x1="40.857021"
       y1="146.42857"
       x2="212.00011"
       y2="146.42857"
       id="linearGradient3267"
       xlink:href="#linearGradient3251"
       gradientUnits="userSpaceOnUse"
       gradientTransform="matrix(1.5489219,0,0,1.5489219,-22.427314,-97.74325)" />
  </defs>
  <g
     transform="translate(-40.857023,-80.062294)"
     id="layer2"
     style="display:inline">
    <g
       id="g3272">
      <path
         d="M 99.764864,86.167756 C 85.083717,81.679135 69.190695,86.074356 59.367897,97.950715 C 49.460528,111.60322 44.410268,127.68676 45.158707,145.64109 C 45.719262,152.46734 46.275945,159.2002 49.829171,164.81086 C 55.066231,171.82391 64.372773,175.23959 73.16306,173.18201 C 87.14115,170.19057 103.41149,160.50904 114.63792,146.95008 C 124.17169,136.664 128.19207,120.95406 122.67977,107.48836 C 119.12143,97.856076 109.49426,88.973628 99.764864,86.167756 L 99.764864,86.167756 z"
         id="path3244"
         style="fill:#ffffff;fill-opacity:1;fill-rule:nonzero" />
      <path
         d="M 278.18826,83.879224 C 260.79077,85.561818 248.7287,94.116049 236.66539,105.99256 C 224.79398,117.12048 217.68242,133.67118 223.76023,149.84936 C 228.44061,163.22166 242.64965,173.41434 256.77055,173.78794 C 270.79665,174.25618 283.60841,167.33529 290.80826,155.36662 C 301.00094,138.90824 304.92901,115.99844 298.66826,96.453837 C 295.20348,88.878989 287.06823,82.943985 278.18826,83.879224 L 278.18826,83.879224 z"
         id="path3242"
         style="fill:#ffffff;fill-opacity:1;fill-rule:nonzero" />
      <path
         d="M 162.93362,91.827672 C 154.56247,90.892278 146.23919,91.311416 139.59973,95.238243 C 133.05507,98.978269 129.03732,105.80576 129.13196,113.28582 C 130.15564,128.62216 135.95311,142.08786 145.21551,154.05778 C 155.68451,167.33529 170.64601,176.59397 187.85175,172.94595 C 199.92,170.70172 212.07176,160.50904 215.53159,148.54052 C 220.11345,134.23282 215.71839,119.36487 204.50202,109.73259 C 192.3402,99.726709 178.59446,93.229911 162.93362,91.827672 z"
         id="path3238"
         style="fill:#ffffff;fill-opacity:1;fill-rule:nonzero" />
      <path
         d="M 126.13448,104.68357 C 129.03778,96.266882 138.10441,89.253828 147.08165,88.505389 C 166.67411,85.748618 191.68686,92.99401 208.89771,107.86196 C 213.75482,112.63202 217.12125,118.14928 219.27208,124.04014 C 220.30087,122.3563 221.04931,120.29887 221.98842,118.42948 C 233.39282,98.32447 256.21433,82.707929 275.84738,80.370142 C 286.60046,78.874503 296.69958,84.110168 301.74984,93.18081 C 306.61718,104.30873 306.71058,118.61628 304.74267,130.86639 C 300.72121,149.47452 290.43513,171.73051 269.58153,176.59397 C 253.59139,180.801 236.66585,175.56518 226.29024,162.66002 C 223.10674,158.91984 221.24122,154.71158 219.46012,150.40991 C 214.78346,164.25046 200.94415,175.65858 186.63662,177.43457 C 164.66222,181.45604 146.98809,165.5593 136.04697,148.25892 C 132.96075,142.9297 130.1561,137.41244 128.28547,131.42694 L 128.09867,131.42694 C 122.95625,147.13688 109.49426,160.60244 95.089598,168.83232 C 83.680084,174.81674 67.503144,182.76503 54.037437,174.34958 C 40.763641,166.58809 40.857041,150.78475 40.857041,136.7574 C 42.067524,120.11207 47.771584,105.05732 58.619458,92.433455 C 69.653977,81.679135 85.457317,77.190515 100.70398,81.959335 C 111.35994,85.138962 121.83793,94.116049 126.13448,104.68357 L 126.13448,104.68357 z M 99.764864,86.167756 C 85.083717,81.679135 69.190695,86.074356 59.367897,97.950715 C 49.460528,111.60322 44.410268,127.68676 45.158707,145.64109 C 45.719262,152.46734 46.275945,159.2002 49.829171,164.81086 C 55.066231,171.82391 64.372773,175.23959 73.16306,173.18201 C 87.14115,170.19057 103.41149,160.50904 114.63792,146.95008 C 124.17169,136.664 128.19207,120.95406 122.67977,107.48836 C 119.12143,97.856076 109.49426,88.973628 99.764864,86.167756 L 99.764864,86.167756 z M 278.18826,83.879224 C 260.79077,85.561818 248.7287,94.116049 236.66539,105.99256 C 224.79398,117.12048 217.68242,133.67118 223.76023,149.84936 C 228.44061,163.22166 242.64965,173.41434 256.77055,173.78794 C 270.79665,174.25618 283.60841,167.33529 290.80826,155.36662 C 301.00094,138.90824 304.92901,115.99844 298.66826,96.453837 C 295.20348,88.878989 287.06823,82.943985 278.18826,83.879224 L 278.18826,83.879224 z M 162.93362,91.827672 C 154.56247,90.892278 146.23919,91.311416 139.59973,95.238243 C 133.05507,98.978269 129.03732,105.80576 129.13196,113.28582 C 130.15564,128.62216 135.95311,142.08786 145.21551,154.05778 C 155.68451,167.33529 170.64601,176.59397 187.85175,172.94595 C 199.92,170.70172 212.07176,160.50904 215.53159,148.54052 C 220.11345,134.23282 215.71839,119.36487 204.50202,109.73259 C 192.3402,99.726709 178.59446,93.229911 162.93362,91.827672 z"
         id="path2409"
         style="fill:url(#linearGradient3267);fill-opacity:1;fill-rule:nonzero" />
      <path
         d="M 81.062252,112.63171 L 89.572183,126.00401 C 89.697181,125.82976 89.817068,125.64668 89.92828,125.46499 C 94.827056,114.5011 93.717408,109.94185 100.04506,110.01248 C 102.13409,109.94185 103.87865,110.66767 105.28228,112.35027 C 107.83831,115.04895 106.40432,119.17652 105.28228,121.88899 L 97.520631,143.39655 C 96.620707,145.36058 94.247604,146.48262 92.096771,146.57602 C 90.039338,146.57602 88.281002,146.06364 86.864668,144.51859 C 83.871996,139.84332 81.062252,135.1679 77.882625,130.58588 C 75.830148,135.2613 74.988309,140.40372 72.090122,144.70539 C 70.032689,146.76282 66.75455,146.94977 64.235074,145.82758 C 62.172685,144.70539 59.915751,141.77576 61.050491,138.15933 L 70.032689,113.28551 C 71.368169,110.76107 73.300604,110.10588 75.544837,110.01248 C 77.739969,109.94185 79.659858,110.76107 81.062252,112.63171 L 81.062252,112.63171 z"
         id="path2411"
         style="fill:#000000;fill-rule:nonzero" />
      <path
         d="M 169.80526,112.72619 C 172.04949,115.62438 170.4603,119.36564 169.52491,122.35708 C 172.83325,122.37473 176.25776,122.35708 179.6293,122.35708 C 181.86842,118.08701 181.77502,109.94293 188.97998,110.10696 C 191.40604,110.10696 193.65152,111.5106 194.77371,113.47339 C 195.61942,114.78362 195.42751,116.65302 195.33411,118.24345 L 186.45044,143.11728 C 185.2968,145.44112 182.89721,146.7639 180.2831,146.5771 C 177.84695,146.4837 175.23408,144.98667 174.39224,142.64904 C 173.08324,139.75085 174.85552,137.01685 175.50932,134.39778 L 165.22324,134.39778 C 163.24651,137.96107 162.70252,146.37652 156.62099,146.5771 C 153.91348,146.6705 151.47733,145.54846 150.16834,143.11728 C 149.51826,141.71504 149.06396,140.45406 149.92345,137.80447 L 158.67719,113.37999 C 159.98742,111.32256 162.23041,110.01356 164.75624,110.01356 C 166.98653,110.13856 168.40287,111.04236 169.80526,112.72619 L 169.80526,112.72619 z"
         id="path2413"
         style="fill:#000000;fill-rule:nonzero" />
      <path
         d="M 282.86105,113.75467 C 283.72055,115.36137 283.87591,117.8556 282.3939,119.64553 C 279.83291,122.09051 274.44932,125.49225 268.65186,129.37121 C 272.96623,132.97354 275.848,134.91868 277.48629,136.97115 C 278.80923,138.6587 278.80923,140.68593 278.18935,142.46193 C 277.53555,144.14576 276.1282,145.73495 274.44932,146.38999 C 272.29849,147.04395 269.76894,146.76359 268.08635,145.36135 C 263.5082,141.05953 259.30118,137.22611 254.62064,133.29804 L 251.07129,143.11697 C 250.03878,145.17455 247.70099,146.67019 245.36707,146.57679 C 242.74413,146.57679 240.0329,145.26795 239.0975,142.64873 C 238.53586,141.43313 238.44246,139.65714 238.82118,138.3483 L 247.79439,113.49074 C 248.65404,111.4649 250.59918,110.48165 252.56832,110.10665 C 254.71792,109.82645 256.49004,110.57505 257.98707,111.79049 C 259.76306,113.47308 260.41826,115.81087 259.95498,118.24314 L 259.17618,120.66039 L 259.57626,120.48737 L 274.7258,110.48165 C 277.81203,109.35945 281.55206,110.66845 282.86105,113.75467 L 282.86105,113.75467 z"
         id="path2415"
         style="fill:#000000;fill-rule:nonzero" />
      <path
         d="M 84.335124,121.60926 L 90.039338,130.67974 L 90.382579,129.9313 L 96.308909,114.31476 C 97.164689,112.55643 98.366342,112.35073 99.671464,112.16393 C 101.07386,112.16393 102.38285,112.44413 103.41149,113.37937 C 104.2572,114.31476 104.72048,115.4368 104.20934,117.26329 C 101.49671,125.77214 98.923025,133.48453 96.024837,141.90122 C 95.561554,142.92986 94.434404,143.86401 93.410721,144.23885 C 92.007088,144.70585 90.462194,144.81691 89.103944,143.67721 C 84.803518,137.973 81.435852,131.80194 77.509025,125.81628 C 75.264637,131.3337 73.300604,136.94436 71.33781,142.46162 C 70.904887,143.49041 69.373777,144.33225 68.064783,144.51905 C 66.56775,144.79925 65.445711,144.05205 64.323518,143.39701 C 63.107924,142.08802 62.360724,140.12399 63.201324,138.44139 L 71.89821,114.31476 C 72.646804,113.09917 73.63006,112.16393 75.081709,112.16393 C 79.16126,111.38498 81.578507,117.77459 84.335124,121.60926 L 84.335124,121.60926 z"
         id="path2417"
         style="fill:#e81938;fill-opacity:1;fill-rule:nonzero" />
      <path
         d="M 168.594,114.78316 C 169.48014,117.93119 167.45431,121.51601 166.44317,124.4633 C 170.88254,124.476 176.07034,124.4633 181.30616,124.4633 L 184.95403,114.31492 C 185.79602,113.09933 187.01161,112.35089 188.41772,112.16409 C 189.72794,112.16409 190.93842,112.44429 191.97218,113.28613 C 192.99586,114.40832 193.6509,115.62391 193.37457,117.30775 L 184.68265,142.17274 C 183.87226,143.51318 182.43331,144.33241 181.12447,144.51921 C 179.62868,144.70601 178.40813,144.14561 177.38444,143.21021 C 174.31076,140.1418 177.65953,135.69732 178.50153,132.26909 C 173.76802,132.26909 168.85655,132.19335 163.91363,132.26909 C 162.22979,135.72892 161.56205,138.771 159.97286,142.32423 C 158.49488,144.7376 156.33893,144.79941 154.46954,144.23901 C 152.69231,143.67737 151.08917,141.46458 151.71277,139.59394 C 154.59314,130.8667 157.27417,122.91841 160.55231,114.40832 C 161.20611,113.09933 162.51123,112.44429 163.91363,112.16409 C 165.87766,112.07069 167.74705,112.91253 168.594,114.78316 L 168.594,114.78316 z"
         id="path2419"
         style="fill:#e81938;fill-opacity:1;fill-rule:nonzero" />
      <path
         d="M 256.86395,113.66019 C 259.40604,115.98388 256.21386,122.76088 255.08671,125.72211 C 261.81941,121.70188 268.55227,116.93182 275.29023,112.538 C 276.50071,111.9762 278.37135,112.06976 279.49354,112.8182 C 280.43265,113.66019 281.27077,114.78223 281.27077,116.09122 C 281.36417,117.30682 280.80238,118.42886 280.05518,119.08266 C 275.09832,122.54248 270.05317,125.62871 265.18584,129.08854 L 275.19683,137.78542 C 275.84691,138.44062 276.31391,139.46926 276.40731,140.59145 C 276.31391,141.99384 275.65996,143.48964 274.25648,144.14468 C 273.13924,144.89188 271.64361,144.97273 270.5163,144.33148 C 264.62544,139.84301 259.2053,134.2322 253.77772,129.55693 L 248.96476,142.4785 C 248.18472,144.03734 246.39107,144.61168 244.80063,144.61168 C 243.39824,144.51828 242.08925,143.67644 241.34081,142.46084 C 240.77901,141.33865 240.31201,139.98551 240.97092,138.53402 L 249.4759,114.59419 C 250.13109,113.0984 251.72029,112.538 253.22104,112.16316 C 254.61956,112.16316 255.92855,112.538 256.86395,113.66019 L 256.86395,113.66019 z"
         id="path2421"
         style="fill:#e81938;fill-opacity:1;fill-rule:nonzero" />
    </g>
  </g>
</svg>
